<svg width="583" height="530" viewBox="0 0 583 530" fill="none" xmlns="http://www.w3.org/2000/svg">
<path fill-rule="evenodd" clip-rule="evenodd" d="M6.31101 227.575C6.31101 227.575 18.9862 222.059 43.6485 220.836C54.8556 220.276 68.5209 220.631 84.6701 222.758C94.9378 224.111 106.197 226.172 118.472 229.175C133.88 232.944 150.887 238.121 169.502 245.488C230.962 269.555 305.718 295.221 376.79 308.914C424.922 318.187 471.342 321.962 510.813 316.195C515.962 315.441 520.084 314.391 524.187 312.85C527.879 311.473 531.555 309.703 535.977 307.399C536.608 307.087 536.669 306.266 536.107 305.564C535.548 304.871 534.581 304.557 533.953 304.878C529.52 307.003 525.847 308.639 522.171 309.891C518.173 311.25 514.176 312.153 509.191 312.746C469.814 317.478 423.784 312.623 376.223 302.512C305.737 287.521 231.882 260.888 171.228 235.997C151.865 228.133 134.147 222.379 118.095 218.489C105.196 215.359 93.3714 213.378 82.6407 212.261C65.743 210.516 51.5415 210.834 40.0283 212.126C14.4707 214.994 2.11173 222.444 2.11173 222.444C0.842857 223.102 0.74839 224.785 1.90684 226.206C3.06239 227.619 5.04213 228.234 6.31101 227.575Z" fill="#343D33"/>
<path fill-rule="evenodd" clip-rule="evenodd" d="M489.152 318.312C489.152 318.312 490.719 318.783 493.346 319.426C494.554 319.719 495.962 320.06 497.53 320.362C501.093 321.052 505.418 321.675 510.018 322.982C514.578 324.281 519.337 325.99 523.752 328.484C524.239 328.797 524.8 328.749 525.01 328.384C525.219 328.018 524.988 327.469 524.501 327.155C518.936 323.177 512.555 320.282 506.665 318.2C504.321 317.375 502.074 316.675 499.988 316.14C498.395 315.731 496.891 315.366 495.549 315.167C494.154 314.964 492.947 314.904 491.926 314.884C489.622 314.831 488.353 314.998 488.353 314.998C487.365 314.921 486.747 315.602 486.966 316.518C487.185 317.433 488.164 318.234 489.152 318.312Z" fill="#343D33"/>
<path fill-rule="evenodd" clip-rule="evenodd" d="M429.428 316.35C429.428 316.35 430.429 317.405 432.369 319.02C433.231 319.736 434.264 320.554 435.496 321.382C436.689 322.174 438.064 322.936 439.535 323.719C441.458 324.749 443.567 325.744 445.801 326.694C451.39 329.075 457.643 331.059 463.577 331.463C464.102 331.53 464.46 331.205 464.375 330.728C464.296 330.254 463.803 329.807 463.281 329.734C458.794 328.829 454.294 326.969 450.092 324.881C445.838 322.762 442.039 320.225 438.854 318.277C437.453 317.422 436.177 316.719 435.083 316.115C432.688 314.789 431.231 314.077 431.231 314.077C430.355 313.406 429.24 313.372 428.74 313.996C428.239 314.62 428.551 315.679 429.428 316.35Z" fill="#343D33"/>
<path fill-rule="evenodd" clip-rule="evenodd" d="M465.474 317.327C465.474 317.327 466.404 316.968 467.8 316.109C468.426 315.726 469.139 315.263 469.834 314.631C470.504 314.02 471.121 313.249 471.77 312.42C472.624 311.324 473.444 310.08 474.228 308.756C476.403 305.117 478.206 300.93 478.402 296.908C478.466 296.471 478.096 295.957 477.568 295.751C477.044 295.553 476.563 295.749 476.493 296.182C475.922 298.287 474.71 300.316 473.259 302.273C471.649 304.448 469.682 306.404 467.882 308.155C466.999 309.019 466.11 309.777 465.406 310.539C464.923 311.073 464.54 311.599 464.2 312.081C463.126 313.596 462.597 314.582 462.597 314.582C461.974 315.103 462.109 316.134 462.901 316.894C463.697 317.65 464.854 317.844 465.474 317.327Z" fill="#343D33"/>
<path fill-rule="evenodd" clip-rule="evenodd" d="M333.255 298.814C333.255 298.814 336.545 301.56 341.886 305.988C344.375 308.05 347.288 310.475 350.553 313.128C358.088 319.261 367.352 326.705 376.155 334.898C385.501 343.601 394.463 352.972 400.681 362.004C400.98 362.46 401.575 362.716 402.014 362.578C402.447 362.436 402.559 361.945 402.26 361.489C395.021 349.773 383.452 337.219 371.942 326.24C367.645 322.148 363.374 318.266 359.31 314.76C356.215 312.094 353.285 309.616 350.531 307.464C347.701 305.249 345.092 303.365 342.869 301.79C337.992 298.34 334.935 296.451 334.935 296.451C334.033 295.802 332.927 295.809 332.47 296.464C332.006 297.115 332.359 298.169 333.255 298.814Z" fill="#343D33"/>
<path fill-rule="evenodd" clip-rule="evenodd" d="M367.732 349.46C370.729 347.265 372.177 343.166 372.827 338.972C373.099 337.2 373.214 335.437 373.205 333.781C373.199 332.987 373.196 332.228 373.089 331.496C372.973 330.737 372.789 330.031 372.586 329.393C371.953 327.365 371.337 326.168 371.337 326.168C371.14 325.261 370.185 324.452 369.201 324.356C368.217 324.26 367.581 324.915 367.778 325.822C367.778 325.822 367.634 326.692 367.578 328.245C367.557 328.946 367.506 329.754 367.574 330.696C367.678 332.08 368.008 333.696 368.165 335.37C368.366 337.616 368.509 339.968 368.261 342.159C368.001 344.471 367.451 346.585 366.214 348.119C365.922 348.404 366.019 348.93 366.436 349.302C366.853 349.673 367.434 349.741 367.732 349.46Z" fill="#343D33"/>
<path fill-rule="evenodd" clip-rule="evenodd" d="M307.6 343.66C302.829 330.127 292.346 315.562 281.215 302.794C276.304 297.165 271.287 291.889 266.566 287.23C264.254 284.949 262.027 282.799 259.882 280.871C257.654 278.863 255.53 277.073 253.617 275.512C247.679 270.663 243.753 267.938 243.753 267.938C242.892 267.258 241.779 267.198 241.266 267.799C240.744 268.401 241.022 269.442 241.879 270.126C241.879 270.126 246.075 273.905 252.468 279.978C253.57 281.025 254.742 282.129 255.979 283.288C257.109 284.334 258.295 285.421 259.523 286.552C267.236 293.645 276.415 302.486 284.754 312.107C293.569 322.277 301.516 333.227 305.856 343.742C306.033 344.211 306.566 344.564 307.052 344.543C307.532 344.517 307.773 344.12 307.6 343.66Z" fill="#343D33"/>
<path fill-rule="evenodd" clip-rule="evenodd" d="M264.286 317.96C267.363 315.591 268.624 309.898 268.967 304.042C269.106 301.82 269.107 299.593 268.992 297.512C268.941 296.521 268.893 295.566 268.743 294.66C268.587 293.722 268.364 292.851 268.142 292.07C267.426 289.614 266.754 288.117 266.754 288.117C266.567 287.211 265.619 286.392 264.635 286.283C263.654 286.183 263.006 286.83 263.187 287.731C263.187 287.731 263.09 288.887 263.117 290.869C263.126 291.775 263.131 292.829 263.262 294.034C263.446 295.824 263.878 297.896 264.145 300.039C264.515 302.972 264.824 306.052 264.75 308.846C264.661 312.1 264.193 314.956 262.775 316.623C262.476 316.904 262.573 317.43 262.99 317.802C263.406 318.173 263.988 318.241 264.286 317.96Z" fill="#343D33"/>
<path fill-rule="evenodd" clip-rule="evenodd" d="M180.378 298.552C178.442 283.087 170.593 269.182 161.327 257.716C156.713 252.004 151.742 246.898 146.957 242.533C144.592 240.377 142.289 238.382 140.055 236.628C137.738 234.807 135.522 233.237 133.513 231.885C127.313 227.718 123.102 225.631 123.102 225.631C122.157 225.08 121.12 225.226 120.786 225.957C120.449 226.679 120.94 227.711 121.879 228.258C121.879 228.258 125.582 230.773 131.156 235.139C132.976 236.558 134.987 238.19 137.17 239.962C139.91 242.185 142.928 244.632 145.99 247.382C149.989 250.978 154.133 255.021 158.067 259.509C167.454 270.212 175.724 283.318 178.543 298.281C178.613 298.74 179.088 299.174 179.591 299.246C180.099 299.323 180.458 299.012 180.378 298.552Z" fill="#343D33"/>
<path fill-rule="evenodd" clip-rule="evenodd" d="M423.945 266.016C423.338 273.022 419.052 279.705 413.695 285.65C408.944 290.931 403.253 295.522 398.432 299.178C397.672 299.757 396.941 300.309 396.258 300.861C395.504 301.458 394.803 302.046 394.145 302.602C390.344 305.849 387.864 307.903 387.864 307.903C387.161 308.325 387.162 309.321 387.875 310.126C388.582 310.926 389.73 311.236 390.436 310.809C390.436 310.809 393.646 309.422 398.117 306.676C398.886 306.2 399.682 305.674 400.488 305.096C401.225 304.561 401.966 303.983 402.708 303.364C407.487 299.418 412.81 294.191 417.172 288.348C422.165 281.648 425.817 274.103 425.804 266.577C425.821 266.14 425.419 265.657 424.903 265.5C424.393 265.347 423.962 265.578 423.945 266.016Z" fill="#343D33"/>
<path fill-rule="evenodd" clip-rule="evenodd" d="M325.688 245.428C323.212 253.181 316.719 258.94 309.096 263.318C301.965 267.408 293.776 270.169 286.84 272.152C285.746 272.467 284.692 272.764 283.683 273.066C282.582 273.389 281.538 273.713 280.55 274.024C274.869 275.808 271.089 276.801 271.089 276.801C270.187 276.929 269.809 277.772 270.242 278.665C270.677 279.568 271.758 280.19 272.663 280.058C272.663 280.058 276.99 279.851 283.261 278.666C284.34 278.463 285.471 278.215 286.637 277.918C287.699 277.648 288.781 277.324 289.886 276.969C296.947 274.71 305.04 271.252 311.98 266.52C319.5 261.391 325.602 254.721 327.506 246.266C327.613 245.86 327.3 245.346 326.798 245.117C326.3 244.884 325.801 245.026 325.688 245.428Z" fill="#343D33"/>
<path fill-rule="evenodd" clip-rule="evenodd" d="M242.05 214.368C238.271 221.753 232.067 227.491 225.263 232.022C218.386 236.603 210.819 239.83 204.444 242.179C203.414 242.561 202.419 242.921 201.474 243.276C200.433 243.672 199.456 244.058 198.533 244.422C193.153 246.569 189.626 247.732 189.626 247.732C188.745 247.909 188.426 248.774 188.905 249.667C189.379 250.557 190.482 251.134 191.364 250.957C191.364 250.957 194.76 250.647 199.883 249.411C201.527 249.012 203.337 248.515 205.238 247.867C207.058 247.241 208.934 246.445 210.882 245.565C214.818 243.787 218.988 241.572 223.043 238.905C231.667 233.23 239.748 225.505 243.801 215.376C243.976 215.006 243.72 214.478 243.238 214.196C242.753 213.919 242.219 213.994 242.05 214.368Z" fill="#343D33"/>
<path fill-rule="evenodd" clip-rule="evenodd" d="M202.571 208.682C206.431 216.04 207.626 222.224 207.599 227.281C207.584 229.553 207.278 231.566 206.88 233.355C206.57 234.765 206.13 235.991 205.783 237.129C205.494 238.043 205.276 238.9 205.045 239.645C204.315 241.956 203.743 243.298 203.743 243.298C203.224 243.895 203.499 244.94 204.35 245.62C205.207 246.305 206.327 246.369 206.84 245.768C206.84 245.768 208.271 244.743 209.799 242.434C210.287 241.712 210.753 240.851 211.141 239.839C211.506 238.871 211.753 237.756 211.951 236.551C212.335 234.186 212.452 231.423 212.084 228.293C211.407 222.691 209.239 215.956 204.159 208.269C203.885 207.818 203.316 207.54 202.88 207.66C202.442 207.771 202.306 208.231 202.571 208.682Z" fill="#343D33"/>
<path fill-rule="evenodd" clip-rule="evenodd" d="M556.195 285.5C550.891 281.228 545.546 279.638 540.579 279.91C537.408 280.078 534.427 281.099 531.722 282.71C529.097 284.277 526.763 286.451 524.818 289.023C520.5 294.741 518.114 302.437 518.202 309.717L518.198 311.377L520.068 312.273C529.944 316.831 541.518 314.445 549.767 309.091C555.849 305.138 560.117 299.683 560.67 294.743C561.063 291.253 559.736 287.992 556.195 285.5ZM523.147 309.32C531.179 312.325 540.237 310.114 547.112 306.118C552.876 302.772 557.152 298.12 557.883 293.711C558.284 291.257 557.559 288.903 555.077 287.038C551.233 284.536 547.648 283.619 544.326 283.697C541.061 283.776 538.137 284.976 535.48 286.819C533.294 288.337 531.338 290.315 529.623 292.584C526.065 297.323 523.616 303.33 523.147 309.32Z" fill="#343D33"/>
<path fill-rule="evenodd" clip-rule="evenodd" d="M554.799 340.346C555.959 336.318 553.792 332.221 549.797 328.607C547.646 326.661 544.889 324.916 541.809 323.433C538.89 322.026 535.654 320.886 532.345 320.095C524.987 318.336 517.28 318.3 511.523 320.37L509.407 321.093L511.026 323.279C515.97 329.715 527.971 339.967 538.043 344.578C543.243 346.962 547.932 347.863 551.035 346.325C552.969 345.373 554.359 343.501 554.799 340.346ZM516.649 323.994C521.659 329.926 530.863 337.866 538.851 341.888C545.398 345.176 551.113 345.727 552.423 339.409C552.591 336.771 551.136 334.425 548.853 332.35C546.77 330.454 543.943 328.882 540.743 327.537C538.189 326.457 535.411 325.568 532.547 324.889C527.101 323.593 521.372 323.088 516.649 323.994Z" fill="#343D33"/>
<path fill-rule="evenodd" clip-rule="evenodd" d="M507.351 347.74L506.275 346.645C502.452 342.509 497.759 338.122 492.461 334.359C489.034 331.929 485.363 329.784 481.599 328.077C472.353 323.895 462.54 322.383 453.792 326.005L452.046 326.698L453.429 328.562C458.347 335.034 467.57 344.138 478.511 348.808C487.041 352.448 496.643 353.488 506.019 348.421L507.351 347.74ZM502.954 347.098C498.579 343.1 493.218 339.1 487.52 335.72C483.648 333.423 479.614 331.389 475.497 330.039C469.725 328.144 463.831 327.505 458.274 329.079C462.824 334.827 470.299 342.041 479.173 346.1C486.454 349.426 494.653 350.583 502.954 347.098Z" fill="#343D33"/>
<path fill-rule="evenodd" clip-rule="evenodd" d="M435.096 387.203L434.647 386.1C432.838 381.071 430.036 375.906 426.343 371.034C423.932 367.843 421.128 364.789 418.071 361.994C410.269 354.856 400.791 349.389 391.197 347.109L388.776 346.506L389.086 348.667C390.002 354.342 394.36 366.955 403.736 376.224C410.726 383.133 420.452 388.297 433.562 387.294L435.096 387.203ZM431.077 385.16C429.019 380.952 426.141 376.76 422.812 372.759C420.464 369.934 417.874 367.22 415.089 364.685C408.793 358.955 401.482 354.171 393.823 351.662C395.082 357.422 398.745 367.083 405.962 374.572C411.796 380.627 419.961 385.194 431.077 385.16Z" fill="#343D33"/>
<path fill-rule="evenodd" clip-rule="evenodd" d="M373.511 379.14L374.111 378.315C375.078 377.166 378.182 372.444 379.665 366.082C380.357 363.137 380.617 359.817 380.321 356.447C379.797 350.465 377.362 344.278 371.801 339.104L370.635 337.991L369.343 338.292C362.129 340.14 356.887 346.884 357.546 355.54C358.067 362.392 362.201 370.447 372.057 377.995L373.511 379.14ZM370.211 342.534C364.673 344.327 360.757 349.609 360.981 356.327C361.159 361.996 364.278 368.665 371.734 375.231C372.625 373.229 374.037 369.049 374.85 364.1C375.296 361.378 375.618 358.438 375.395 355.42C375.076 351.045 373.746 346.521 370.211 342.534Z" fill="#343D33"/>
<path fill-rule="evenodd" clip-rule="evenodd" d="M329.087 378.355L328.756 376.922C327.723 371.381 326.635 364.933 324.593 358.529C323.217 354.21 321.378 349.922 319.153 345.981C314.783 338.238 308.708 331.818 300.327 328.607L297.945 327.665L297.847 329.727C297.695 335.837 296.975 350.905 305.038 362.859C309.408 369.334 316.276 374.975 327.159 377.825L329.087 378.355ZM325.146 375.107C323.733 370.012 321.994 364.264 319.935 358.583C318.482 354.577 316.895 350.601 314.873 346.937C311.743 341.254 307.712 336.279 302.045 333.256C301.634 339.826 301.274 351.939 307.674 361.989C311.131 367.418 316.604 372.195 325.146 375.107Z" fill="#343D33"/>
<path fill-rule="evenodd" clip-rule="evenodd" d="M340.909 312.963L339.621 312.224C335.304 309.583 328.647 306.589 321.155 304.161C317.15 302.864 312.912 301.744 308.689 300.889C296.93 298.52 285.367 298.249 278.888 301.558L276.834 302.572L279.065 304.562C290.931 314.961 302.249 320.472 311.925 322.485C325.511 325.303 335.904 321.269 340.172 314.144L340.909 312.963ZM337.119 313.866C332.231 311.505 325.087 309.194 317.415 307.247C312.756 306.06 307.89 304.976 303.2 304.284C295.87 303.2 288.955 302.928 284.056 304.335C293.949 312.802 303.437 317.532 311.723 319.462C323.339 322.17 332.576 319.415 337.119 313.866Z" fill="#343D33"/>
<path fill-rule="evenodd" clip-rule="evenodd" d="M187.995 333.711L188.465 332.417C189.616 329.813 190.662 327.119 191.5 324.362C192.365 321.502 193.053 318.602 193.431 315.715C194.011 311.319 193.927 306.972 193.25 303.025C191.622 293.528 186.337 286.136 176.242 283.743L173.889 283.163L174.195 285.266C174.645 288.101 173.191 291.446 171.958 295.394C170.364 300.484 169.023 306.431 171.23 313.256C173.075 318.972 177.379 325.345 186.275 332.324L187.995 333.711ZM185.737 329.364C186.349 327.111 186.857 324.808 187.305 322.497C187.857 319.641 188.234 316.768 188.497 313.974C188.885 309.882 188.969 305.95 188.415 302.338C187.42 295.891 184.564 290.543 178.4 288.112C178.112 290.799 176.882 293.85 175.658 297.253C174.025 301.803 172.48 307.098 174.263 313.314C175.645 318.115 179.01 323.438 185.737 329.364Z" fill="#343D33"/>
<path fill-rule="evenodd" clip-rule="evenodd" d="M220.926 284.654L219.286 283.96C215.143 282.037 210.14 277.337 204.374 272.613C201.847 270.537 199.183 268.457 196.43 266.564C193.55 264.586 190.561 262.836 187.541 261.438C179.663 257.795 171.493 256.597 163.758 261.296L161.946 262.364L164.015 264.216C177.197 275.742 188.576 283.926 197.668 288.112C208.409 293.059 216.11 292.662 220.082 285.996L220.926 284.654ZM216.949 285.79C212.725 283.68 207.564 279.689 201.964 275.488C199.476 273.618 196.901 271.711 194.27 269.935C191.704 268.198 189.098 266.569 186.436 265.287C180.625 262.501 174.612 261.338 168.716 263.831C180.211 274.158 190.22 281.613 198.403 285.613C206.787 289.712 213.14 290.046 216.949 285.79Z" fill="#343D33"/>
<path fill-rule="evenodd" clip-rule="evenodd" d="M270.046 347.278L270.645 346.453C271.613 345.303 274.71 340.577 276.2 334.22C276.886 331.271 277.146 327.95 276.849 324.58C276.326 318.598 273.893 312.407 268.336 307.242L267.163 306.124L265.872 306.425C258.664 308.277 253.419 315.012 254.074 323.673C254.596 330.525 258.733 338.576 268.586 346.128L270.046 347.278ZM266.745 310.671C261.208 312.465 257.292 317.746 257.51 324.46C257.694 330.133 260.815 336.799 268.271 343.364C269.16 341.366 270.575 337.182 271.385 332.238C271.833 329.512 272.153 326.576 271.929 323.558C271.604 319.179 270.274 314.655 266.745 310.671Z" fill="#343D33"/>
<path fill-rule="evenodd" clip-rule="evenodd" d="M482.505 271.313C477.753 269.024 473.83 269.748 470.953 272.372C469.454 273.735 468.334 275.715 467.578 278.088C466.879 280.292 466.543 282.876 466.6 285.67C466.713 291.544 468.56 298.346 471.987 304.618L473.103 306.718L475.21 306.383C483.355 304.871 488.284 299.296 490.206 292.912C491.54 288.451 491.438 283.649 490.057 279.7C488.681 275.77 486.089 272.659 482.505 271.313ZM475.236 301.598C481.124 300.073 484.847 295.857 486.623 291.111C488.329 286.553 488.312 281.505 486.513 277.73C485.562 275.738 484.136 274.115 482.146 273.267C479.244 272.343 477.136 272.991 475.531 274.474C474.092 275.806 473.204 277.893 472.642 280.414C472.205 282.399 472.015 284.653 472.065 287.068C472.158 291.585 473.111 296.68 475.236 301.598Z" fill="#343D33"/>
<path fill-rule="evenodd" clip-rule="evenodd" d="M441.651 234.563L440.839 234.436C433.27 232.994 427.072 234.532 422.569 237.983C419.616 240.245 417.445 243.374 416.027 246.902C412.245 256.323 414.027 268.738 421.198 277.21L422.582 278.877L424.114 278.13C431.649 274.287 438.083 268.621 441.73 261.625C445.559 254.262 446.345 245.458 442.168 235.804L441.651 234.563ZM440.429 237.265C434.428 236.746 429.814 238.59 426.342 241.605C423.904 243.717 422.03 246.422 420.771 249.486C417.681 256.997 418.123 266.586 422.994 273.848C429.594 270.476 435.24 265.648 438.658 259.691C442.303 253.346 443.432 245.738 440.429 237.265Z" fill="#343D33"/>
<path fill-rule="evenodd" clip-rule="evenodd" d="M401.149 257.958L400.41 258.354C396.113 260.266 393.402 262.649 392.058 265.364C390.802 267.906 390.742 270.745 391.499 273.599C393.15 279.855 399.083 286.458 406.813 291.922L408.666 293.269L409.641 291.927C413.75 285.9 414.618 280.657 413.746 276.098C412.381 268.918 406.729 263.391 402.292 259.103L401.149 257.958ZM401.918 261.495C399.104 263.476 397.477 265.687 396.621 267.939C395.891 269.862 395.814 271.844 396.337 273.893C397.525 278.573 401.567 283.468 406.963 287.834C410.09 283.3 410.969 279.271 410.46 275.637C409.66 269.904 405.518 265.251 401.918 261.495Z" fill="#343D33"/>
<path fill-rule="evenodd" clip-rule="evenodd" d="M358.248 217.737L357.438 217.428C349.851 214.289 342.607 214.303 336.523 216.537C332.693 217.936 329.366 220.26 326.672 223.098C319.247 230.905 316.817 242.787 321.824 252.035L322.787 253.854L324.608 253.563C335.412 251.667 346.205 246.554 352.666 238.87C357.241 233.42 359.66 226.702 358.421 218.96L358.248 217.737ZM356.167 219.835C349.926 217.887 344.291 218.573 339.451 220.636C336.163 222.04 333.241 224.092 330.821 226.592C324.802 232.839 321.812 241.778 324.705 249.483C334.419 247.715 343.976 243.318 349.985 236.723C354.181 232.115 356.65 226.442 356.167 219.835Z" fill="#343D33"/>
<path fill-rule="evenodd" clip-rule="evenodd" d="M353.004 277.554L352.283 276.826C347.527 271.657 342.478 267.809 337.196 265.305C333.326 263.472 329.332 262.38 325.314 261.967C317.201 261.131 308.924 263.174 300.75 267.752L298.294 269.073L301.413 271.007C311.382 277.028 323.528 284.531 334.403 285.515C341.04 286.116 347.271 284.391 352.24 278.423L353.004 277.554ZM349.362 277.646C345.077 273.733 340.685 270.962 336.236 269.084C332.948 267.694 329.633 266.831 326.259 266.477C319.702 265.791 312.955 266.984 306.194 270.033C314.782 275.508 324.66 281.538 333.809 282.644C339.467 283.337 344.803 282.092 349.362 277.646Z" fill="#343D33"/>
<path fill-rule="evenodd" clip-rule="evenodd" d="M304.279 224.643L303.542 225.047C298.971 227.141 296.109 230.341 294.781 234.159C293.798 236.987 293.704 240.17 294.249 243.394C295.658 251.716 301.551 260.457 309.262 265.934L311.127 267.29L312.109 265.939C316.412 259.685 317.302 253.014 316.335 246.826C314.933 237.847 309.659 229.911 305.428 225.792L304.279 224.643ZM305.006 228.21C301.946 230.387 300.265 233.268 299.449 236.409C298.817 238.831 298.741 241.42 299.174 244.085C300.2 250.398 303.993 257.047 309.417 261.775C312.754 256.732 313.6 251.351 313.026 246.28C312.19 238.954 308.47 232.283 305.006 228.21Z" fill="#343D33"/>
<path fill-rule="evenodd" clip-rule="evenodd" d="M272.982 180.199L271.353 179.58C263.663 176.428 255.298 176.779 248.128 179.667C243.902 181.365 240.133 183.987 237.116 187.101C228.215 196.302 226.129 210.001 237.616 220.507L238.336 221.173L239.229 221.277C247.447 222.149 253.022 220.11 257.043 216.315C265.292 208.528 266.745 193.06 272.271 181.603L272.982 180.199ZM269.273 181.754C263.038 180.082 256.746 181.205 251.166 183.757C247.438 185.455 244.01 187.801 241.242 190.612C233.855 198.107 230.749 208.796 239.44 217.649C248.478 218.545 253.761 215.135 257.449 209.83C262.74 202.216 264.876 190.856 269.273 181.754Z" fill="#343D33"/>
<path fill-rule="evenodd" clip-rule="evenodd" d="M193.569 174.096L193.052 174.368C188.433 176.502 186.15 179.952 185.53 184.026C185.247 185.891 185.329 187.9 185.754 189.981C187.743 199.679 196.648 210.8 205.362 217.02L206.58 217.906L207.665 217.462C213.923 214.768 215.207 208.513 213.274 201.261C210.735 191.722 202.678 180.549 194.72 174.933L193.569 174.096ZM194.757 177.379C191.453 179.658 190.207 182.861 190.176 186.422C190.162 189.029 190.829 191.838 191.993 194.701C194.773 201.54 200.29 208.638 206.128 213.339C210.311 211.106 211.022 206.363 209.806 201.009C207.917 192.726 201.517 182.948 194.757 177.379Z" fill="#343D33"/>
</svg>
